<svg version="1.1" xmlns="http://www.w3.org/2000/svg" xmlns:xlink="http://www.w3.org/1999/xlink" x="0px" y="0px"
	 viewBox="0 0 3528.37 3203.47" style="enable-background:new 0 0 3528.37 3203.47;" xml:space="preserve">
<style type="text/css">
	.st0{fill:none;stroke:#000000;stroke-width:5;stroke-miterlimit:10;}
	.st1{display:none;}
	.st2{display:inline;}
	.st3{stroke:#000000;stroke-width:5;stroke-miterlimit:10;}
	.st4{fill:#FF0000;stroke:#FF0000;stroke-width:10;stroke-miterlimit:10;}
	.st5{fill:#FF0000;stroke:#FF0000;stroke-width:10;stroke-linejoin:round;stroke-miterlimit:10;}
	.st6{fill:#FFFFFF;stroke:#000000;stroke-width:5;stroke-miterlimit:10;}
</style>
<g id="front_borders">
	<path class="st0" d="M1734.09,1618.36c-13.17-18.22-27.38-35.69-41.23-53.42c-24.34-32.69-46.31-62.34-87.81-72.59
		c-2.38-0.75-5.17-1.82-6.61-3.65c-23.67-29.99-47.69-59.73-70.5-90.36c-53.86-86.22-37.74-200.48-94.67-285.68
		c-9.67-13.96-22.11-27.32-36.15-36.64c-67.99-41.58-41.17-133.2-79.32-193.39c-24.2-55.26-10.07-116.92-11.17-175.24
		c5.68-89.74-83.32-161.58-169.55-146.13c-14.09,1.93-15.15,1.55-30.55,1.55c-30.44-20.44-133.43-85.65-132.3-113.73
		c-0.86-19.6-0.38-39.27-1.78-58.82c-0.66-9.21,2.72-15.45,6.41-24.12c4.88-11.43,3.55-25.89,5.65-38.45
		c6.15-30.77,34.5-9.59,47.13-48.45c8.91-22.53,5.35-45.8,2.1-68.71c-0.92-5.17-15.36-12.72-21.55-12.72
		c0.1-62.49-13.88-106.49-64-133c-83.99-47.36-212.5-13.65-221,99c-0.4,10.29-2,24.04-2,34c-6.26-0.15-20.76,7.86-21.55,12.72
		c-3.25,22.91-6.81,46.18,2.1,68.72c12.74,38.99,40.92,17.6,47.13,48.45c2.1,12.56,0.44,29.68,5.32,41.12
		c3.7,8.67,7.4,12.24,6.75,21.46c-1.4,19.55-0.92,39.22-1.78,58.81c0.95,28.28-101.36,92.89-132.3,113.73
		c-15.4,0-16.46,0.38-30.55-1.55c-43.76-7.62-90.54,7.59-123.74,36.45c-65.46,56.17-40.06,144.75-43.89,220.35
		c-0.62,21.82-1.77,44.06-13.09,64.57c-22.83,38.86-23.61,85.02-34.03,128.04c-6.45,50.49-56.22,63.64-81.44,101.99
		c-39.18,58.92-43.17,132.51-61.61,199.23c-7.39,30.13-14.07,60.94-33.06,86.45c-22.81,30.64-46.83,60.37-70.5,90.36
		c-1.44,1.83-4.24,2.9-6.61,3.65c-41.33,10.11-63.64,40.1-87.8,72.6c-9.87,16.18-50.1,53.24-43.78,69.51
		c10.96,16.06,35.33,8.38,48.38-1.94c10.67-5.86,9.24,7.79,4.41,12.95c-10.75,21.99-21.77,43.85-31.94,66.1
		c-2.46,5.38-2.71,12.05-2.8,18.14c-0.12,7.27,4.34,11.87,11.62,11.86c21.39-0.08,36.04-22.71,48.78-37.69
		c-0.06,23.67-11.57,46.11-16.11,69.32c-2.42,9.01-2.62,17.44,5.89,23.91c7.89,6,19.82,8.04,27.4,1.59
		c10.7-10,19.45-23.12,23.87-37.35c2.94-10.22,1.58,0.43,2.37,0.65c0.37,14.33-9.5,45.93,8.9,51.47
		c10.96,3.07,21.75-5.19,23.33-8.33c13.38-24.91,18.68-55.25,27.14-82.45c0.74,14.11,1.62,28.01,6.93,40.98
		c7.47,18.47,39.02,14.32,39.26-6.63c3.82-28.46,7.41-56.96,10.29-85.53c2.11-21.02,0.43-42.56,11.38-62.02
		c10.9-33.17,16.07-68.47,25.25-102.26c19.97-99.55,109.02-157.25,160.76-239.12c58-69.33,35.5-136.73,79.37-200.87
		c24.91-33.8,47.05-69.12,63.83-109.93c50.1,64.63,45.61,154.72,42.96,232.82c-5.91,23.2-19.44,44.31-17.97,69.44
		c-1.27,34.98,5.13,72.02-1,106.22c-18.08,28.61-30.8,59.74-34.13,93.06c-6.94,69.43-21.45,137.46-33.7,205.94
		c-30.58,154.54,7.09,312.63-15.48,468.03c-0.37,5.36,1.32,12.92,4.99,16.09c19.07,11.32-25.31,60.29-4.21,106.69
		c4,10.53-17.89,46.88-24.43,57.02c-40.17,58.37-76.2,129.76-66.42,202.68c9.62,113.02,29.93,226.31,9.3,339.32
		c-3.15,9.46-9.13,18.14-14.15,26.73c-7.08,10.74-9.11,21.96-6.29,34.56c15.54,59.76-10.74,124.77-51.39,169.72
		c-12.07,12.2-20.22,28.85-27.99,44.56c-6.8,13.74,0.35,23.74,15.29,27.14c24.01,2.42,19.45,14.54,36.87,20.27
		c12.3,3.9,26.7,2.56,38.48,7.23c8.47,13.58,23.32,13.05,36.3,16.44c19.9,5.21,25.29,1.38,39.14-13.72
		c17.11-18.65,17.11-39.65,15.46-62.33c-0.19-20.77,9.3-40.8,14.43-60.73c2.11-7.75,1.31-17,5.31-23.39
		c36.73-55.97,58.51-57.31,18.18-122.16c-4.62-9.84-4.63-20.02-2.66-31.17c2.65-14.93,0.77-30.63,2.91-45.71
		c10.38-57.16,34.2-110.46,59.07-162.55c32.44-66.28,72.86-137.01,61.58-213.81c-3.9-23.85-10.02-47.51-11.75-71.5
		c-1.62-22.62-8.2-45.46,12.23-66.93c29.29-31.15,26.03-80.89,31.66-121.26c0.71-6.02,0.8-14.02,4.54-17.42
		c13.74-12.53,18.36-29.04,23.24-45.65c10.74-37.52,22.94-75.14,28.63-113.79c3.81-57.5,32.58-108.94,51.29-162.59
		c22.5-50.52,25.83-106,23.56-160.3c21.19-2.59,30.31-2.59,51.5,0c-2.23,54.41,1.04,109.71,23.57,160.3
		c18.7,53.65,47.48,105.1,51.29,162.59c5.68,38.65,17.88,76.27,28.63,113.79c4.88,16.61,9.5,33.12,23.24,45.65
		c3.74,3.41,3.83,11.41,4.54,17.42c5.62,40.34,2.37,90.12,31.66,121.26c20.43,21.47,13.85,44.31,12.23,66.93
		c-1.72,23.99-7.85,47.65-11.75,71.5c-11.28,76.8,29.13,147.51,61.58,213.81c24.86,52.09,48.68,105.4,59.06,162.55
		c2.15,15.07,0.26,30.77,2.92,45.71c1.98,11.15,1.97,21.33-2.66,31.17c-40.41,65.07-18.46,66.2,18.19,122.16
		c3.99,6.4,3.2,15.64,5.3,23.39c5.13,19.96,14.62,39.96,14.43,60.73c-1.65,22.68-1.64,43.68,15.46,62.33
		c13.85,15.1,19.24,18.93,39.14,13.72c12.99-3.4,27.83-2.86,36.3-16.44c11.78-4.68,26.18-3.35,38.48-7.23
		c17.31-5.68,13.01-17.86,36.87-20.26c14.94-3.4,22.09-13.4,15.29-27.14c-7.77-15.7-15.92-32.35-27.99-44.56
		c-40.62-44.83-66.96-110.05-51.4-169.72c2.82-12.6,0.78-23.82-6.29-34.56c-5.01-8.56-11.01-17.3-14.15-26.73
		c-20.63-113.02-0.32-226.29,9.3-339.32c9.78-72.93-26.25-144.3-66.41-202.68c-6.55-10.25-28.43-46.36-24.43-57.02
		c21.16-47-23.31-94.63-4.21-106.69c3.67-3.16,5.36-10.72,4.99-16.09c-22.57-155.4,15.1-313.49-15.47-468.03
		c-12.25-68.48-26.76-136.51-33.7-205.94c-3.33-33.32-16.05-64.45-34.13-93.06c-6.13-34.23,0.27-71.18-1-106.22
		c1.47-25.03-12.06-46.32-17.98-69.44c-2.69-77.75-7.03-168.59,42.97-232.82c16.78,40.81,38.92,76.13,63.82,109.93
		c43.78,63.86,21.46,131.72,79.38,200.86c51.74,81.86,140.79,139.58,160.76,239.12c9.18,33.79,14.35,69.1,25.24,102.26
		c10.95,19.46,9.27,41,11.39,62.02c2.87,28.57,6.47,57.07,10.29,85.53c0.18,20.81,31.84,25.23,39.27,6.63
		c5.3-12.99,6.18-26.88,6.93-40.98c8.45,27.19,13.76,57.54,27.14,82.45c1.58,3.15,12.38,11.4,23.33,8.33
		c18.39-5.49,8.54-37.18,8.91-51.47c0.79-0.22-0.57-10.87,2.37-0.65c4.41,14.23,13.17,27.35,23.87,37.35
		c7.59,6.45,19.52,4.41,27.4-1.59c8.51-6.47,8.31-14.9,5.89-23.91c-4.54-23.22-16.05-45.65-16.11-69.32
		c12.9,15.14,27.16,37.41,48.78,37.69c15.71,0.22,12.4-20.27,8.82-30.01c-10.17-22.25-21.19-44.11-31.94-66.1
		c-4.9-5.24-6.19-18.73,4.41-12.95C1703.63,1647.67,1750.06,1649.87,1734.09,1618.36z"/>
</g>
<g id="rear_borders">
	<path class="st0" d="M2359.5,1752.34c-6.58,95.12-3.94,190.31,11.24,284.48c3.43,22.17,9.42,44.03,5.16,66.76
		c-2.35,66.51-4.01,133.12-6.21,199.67c-14.2,85.22-71.5,158.69-67.36,248.72c-1.09,75.23,3.31,147.36,28.21,218.74
		c5.62,38.85,11.32,79.06,1.91,117.83c-6.07,36.38-8.06,75.11-21.95,108.19c-12.88,7.36-25.6,15.18-39.11,21.2
		c-19.16,6.9-28.52,36-7.13,45.37c13.99,7.22,22.71,18.98,25.94,33.66c11.81,52.71,42.89,124.76,109.07,102.84
		c22.88-6.77,44.61-20.19,44.92-46.72c-1.64-30.23,4.31-60.19,12-89.24c3.92-13.57,7.19-26.73,3.98-40.33
		c-5.79-32.55-21.48-64.75-21.68-97.8c5.36-24.9,13.01-49.36,17.42-74.41c4.99-28.35,17.74-51.96,33.54-75.74
		c38.5-65.61,71.96-139.37,59.35-217.49c-35.88-257.73,14.57-143.53,46.05-333.08c9-100.85,14.92-211.18,63.46-300.05
		c30.88-91.61,15.56-171.57,20.24-266.22l3.76,0.32v0.07c0.2-0.03,0.61-0.03,0.81,0v-0.07l3.76-0.32
		c4.58,94.47-10.63,174.54,20.24,266.22c48.55,88.88,54.46,199.21,63.46,300.06c31.54,189.77,81.9,75.13,46.04,333.08
		c-12.6,78.12,20.85,151.88,59.35,217.49c15.8,23.79,28.54,47.39,33.54,75.74c24.48,103.45,21.27,68.36-4.26,172.2
		c-3.21,13.6,0.06,26.76,3.98,40.33c5.75,19.9,8.73,40.66,11.99,61.19c1.33,16.71-3.16,35.41,6.6,50.61
		c24.57,32,81.41,38.63,109.46,6.58c18.87-24.53,31.33-55.11,37.95-85.26c3.22-14.68,11.94-26.45,25.94-33.66
		c21.36-9.48,12.04-38.39-7.13-45.37c-7.57-4.27-42.35-18.94-42.16-27.03c-9.41-32.67-14.17-67.66-18.91-102.36
		c-3.03-15.66-5.71-31.35-5.4-47.36c1.59-23.33,3.53-47.42,7.31-70.47c8.79-32.11,12.94-40.6,19.3-73.16
		c15.95-101.8,16.04-210.24-30.33-304.11c-10.29-29.41-25.63-58.89-28.13-90.19c-2.19-66.54-3.85-133.16-6.2-199.67
		c-4.59-46.3,12.46-91.36,13.77-137.68c17.87-141.28-5.1-283.02-21.48-423.34c-4.81-44.69-8.44-89.5-13.63-134.14
		c-15.83-76.48-30.33-145.14-41.82-221.05c-10.44-41.6-14.38-83.72-5.83-126.04c8.82-67.57,37.96-129.59,53.83-195.26
		c6.63-28.09,7.58-57.83,18.52-84.7c6.3,18.47,3.77,38.7,4.32,57.74c-14.21,221.01,60.29,158.47,71.97,258.05
		c0.32,19.56,1.63,39.17,3.81,58.61c1,8.89,3.61,18.33,8.1,25.98c18.04,30.67,36.91,60.86,55.85,90.99
		c37.33,59.07,76.34,117.17,111.94,177.3c45.25,68.86,35.01,155.23,40.17,232.33c1.86,4.6,5.21,79.45,13.17,98.43
		c4.83,11.57,7.33,9.07,12.83,11.07c15.96,1.3,23.53-57.01,29-68.5c7,16.28,21.02,43.98,28.5,62c5.64,13.6,9.02,20.54,22.5,25.5
		c9.13,3.36,15.89,1.48,19.03-7.57c7.22-25.65-13.57-44.96-9.55-70.15c3.9,7.2,13.02,26.72,20.52,35.72
		c7.2,12.77,59.74,47.73,61.28,16.89c-0.56-9.89-5.53-17.55-8.78-26.89c-6.05-17.43-11.61-33.62-18-49.5
		c9.91,7.15,37.64,37.62,52.5,26c6.11-5.54,10.75-9.15,6.83-17.04c-5.36-10.79-11.01-21.67-18.18-31.28
		c-16.97-22.73-31.68-63.09-36.65-91.19c8.54,0.48,21.63,8.97,30,9.5c18.53,1.17,35.18-13.99,35-16c-2-22-14.18-29.9-23.8-32.92
		c-56.18-15.38-77.96-74.51-129.35-97.21c-31.56-30.6-42.3-103.83-48.75-147.46c-10.25-102.66-33.83-218.37-119.39-285.73
		c-9.87-7.08-17.68-14.08-21.31-26.07c-5.4-17.84-5.19-37.15-8.95-55.34c-4.03-19.46-13.18-37.15-17.6-56.42
		c-6.96-35.63-4.08-73.18-20.87-106.5c-36.69-99.34,63.36-166.33-75.44-251.42c-44.99-18.96-92.04-29.96-140.43-35.11
		c-9.08-1.29-17.57-2.5-25.28-8.94c-7.14-5.96-16.28-9.51-24.56-14.1c-24.07-11.76-107.46-77.86-93.51-103.65
		c7.33-16.52,11.81-34.49,15.7-52.25c2.15-9.83,4.5-16.26,14.98-20.81c37.57-14.79,28.51-48.63,38.59-80.13
		c8.66-24.01-9.46-35.86-31.71-38.9c2.04-12.54,2.86-25.24,6.28-37.21c18.69-85.79-68.42-143.96-140.51-139.22V0
		c-0.27,0-0.54,0-0.81,0v0.01c-72.05-4.76-159.22,53.43-140.52,139.22c3.42,11.96,4.24,24.67,6.28,37.21
		c-22.25,3.05-40.38,14.89-31.71,38.9c10.02,31.7,1.18,65.31,38.6,80.13c10.48,4.56,12.83,10.98,14.98,20.81
		c3.89,17.76,8.37,35.74,15.69,52.25c14.46,25.39-70.94,93.1-93.51,103.65c-8.28,4.59-17.43,8.14-24.56,14.1
		c-7.71,6.43-16.2,7.65-25.28,8.94c-48.39,5.17-95.44,16.15-140.43,35.12C2163,615.58,2263.1,682,2226.4,781.74
		c-16.79,33.33-13.91,70.87-20.87,106.5c-4.42,19.26-13.58,36.96-17.61,56.42c-3.77,18.18-3.55,37.49-8.95,55.34
		c-3.63,11.99-11.44,18.99-21.31,26.07c-85.57,67.39-109.12,183.02-119.39,285.73c-6.46,43.81-17.31,117.11-48.74,147.47
		c-22.84,11-41.42,27.01-57.82,46.07c-45.62,59.43-92.11,39.24-95.33,84.05c-0.18,2.01,16.47,17.17,35,16
		c8.37-0.53,21.46-9.02,30-9.5c-4.97,28.09-19.68,68.46-36.65,91.19c-7.17,9.61-12.82,20.49-18.18,31.28
		c-3.92,7.88,0.72,11.49,6.83,17.03c14.87,11.62,42.55-18.83,52.5-26c-6.39,15.88-11.95,32.07-18,49.5
		c-3.24,9.34-8.22,17-8.77,26.89c1.55,30.83,54.02-4.08,61.27-16.89c7.5-9,16.62-28.52,20.52-35.72c4.03,25.2-16.77,44.5-9.55,70.15
		c3.14,9.05,9.91,10.92,19.03,7.57c13.48-4.96,16.86-11.9,22.5-25.5c7.48-18.02,21.5-45.72,28.5-62c5.49,11.53,13,69.71,29,68.5
		c5.5-2,8,0.5,12.83-11.07c7.9-18.71,11.4-94.19,13.17-98.43c5.31-79.75-5.18-162.55,40.18-232.33
		c35.6-60.13,74.6-118.23,111.94-177.3c18.94-30.13,37.81-60.32,55.85-90.99c4.5-7.65,7.11-17.09,8.1-25.98
		c2.17-19.44,3.47-39.04,3.81-58.61c8.09-95.46,86.11-34.78,71.96-258.05c0.56-19.04-1.96-39.33,4.32-57.74
		c10.94,26.82,11.89,56.72,18.53,84.7c22.06,86.02,62.12,169.84,58.49,260.64c-14.58,95.68-32.35,185.84-52.31,281.71
		C2386.85,1523.29,2371.06,1637.65,2359.5,1752.34z"/>
</g>
<g id="front">
	<path d="M872.77,942.13c-2.17,17-5.95,17.09-8.13,0c-0.11-33.61,6.97-65.96-36.2-71.86c3.95-8.74,23.6-4.8,27.1-32.8
		c-5.59-65.24-8.41-157.57-15.33-200c-16.47-15.17-18.16-15.29-7.64-36.72c23.84,27.7,48.44,27.7,72.28,0
		c10.55,21.7,8.85,21.39-7.64,36.72c-6.94,42.75-9.72,134.44-15.34,200c3.5,28,23.16,24.07,27.1,32.8
		C865.78,876.19,872.89,908.52,872.77,942.13z"/>
	<path d="M831.83,450.81c12.26,12.51,16.56,33.05,36.86,34.33c20.28-1.27,24.63-21.83,36.87-34.33c15.6-16.56,2.02-28.02,8.72-39.75
		c6.18-4.78,13.73-7.77,23.19-12.76c-14.02,40.15-33.85,76.49-51.41,115.05c-2.47,4.93-11.71,9.49-17.36,8.69
		c-5.65,0.8-14.89-3.77-17.36-8.7c-17.56-38.57-37.38-74.88-51.41-115.04c9.46,4.99,17.01,7.99,23.19,12.76
		C829.82,422.77,816.23,434.25,831.83,450.81z"/>
	<path d="M836.94,419.15c10.92,0,19.57,4.99,29.92,4.99c10.35,0,22.67-4.99,33.59-4.99c-0.76,5.72,0.31,12.6-2.59,16.61
		c-8.69,12.01-18.92,22.89-29.05,34.79c-0.04-0.05-0.08-0.09-0.11-0.14c-0.04,0.05-0.08,0.09-0.11,0.14
		c-10.12-11.9-20.36-22.78-29.05-34.79C836.64,431.75,837.71,424.87,836.94,419.15z"/>
	<path d="M693.72,916.58c-21.38-9.79-42.19-20.57-59.67-39.33c30.45,5.09,59.41,9.93,89.07,14.88
		C715.16,898.72,702.87,919.19,693.72,916.58z"/>
	<path d="M712.13,1151.78c0.05-17.92,1.03-35.85,1.32-53.76c-2.86-32.16,1.69-63.04-4.88-95.69c-3.29-20.68,8.56-39.21,12.46-58.91
		c3.08-13.64,11.39-20.41,26.04-24.15c-1.06,3.39-1.21,5.38-2.19,6.78c-12.69,18.08-14.1,38.36-14.11,59.78
		c-0.02,51.92-1.59,103.85-2.81,155.77c-0.33,8.38-2.88,16.43-11.94,18.98C714.65,1157.64,712.11,1154.7,712.13,1151.78z"/>
	<path d="M599.23,860.8c15.98,9.04,22.93,28.59,36.3,37.34c-0.38,0.93-16.95,4.4-17.33,5.33c-11.43,3.82-10.88,3.62-24.49,8.16
		C595.69,893.42,597.32,878.37,599.23,860.8z"/>
	<path d="M617.53,914.81c22-10.67,42.28,5.78,63.97,18.01c-6.88,4.14-23.94,23.12-29.7,20.47c-16.54-7.8-33.24-15.44-44.61-33.09
		C610.9,919.5,615.59,916.06,617.53,914.81z"/>
	<path d="M1036.02,914.86c-7.24-6.97-13.95-14.47-21.74-22.73c29.66-4.96,58.62-9.8,89.07-14.88
		C1093.72,888.47,1047.39,923.04,1036.02,914.86z"/>
	<path d="M1016.38,943.42c16.78,54.69,13.99,40.03,8.34,95.32c0.01,20.75,1.23,40.89-0.79,61.24c0.51,17.27,1.22,34.53,1.34,51.8
		c0.02,2.92-2.52,5.86-3.88,8.79c-9.06-2.59-11.6-10.55-11.93-18.98c-1.22-51.92-2.79-103.84-2.81-155.77
		c-0.01-21.42-1.42-41.7-14.11-59.78c-0.99-1.4-1.13-3.39-2.19-6.78C1004.99,923.01,1013.3,929.77,1016.38,943.42z"/>
	<path d="M1085.59,953.28c-5.69,2.68-22.85-16.34-29.7-20.47c26.85-16.36,47.4-30.73,74.31-12.62
		C1118.83,937.84,1102.14,945.49,1085.59,953.28z"/>
	<path d="M1119.2,903.47c-0.38-0.93-16.95-4.4-17.33-5.33c13.37-8.75,20.32-28.3,36.3-37.34c1.91,17.58,3.54,32.62,5.52,50.84
		C1130.08,907.09,1130.63,907.29,1119.2,903.47z"/>
	<path d="M25.11,1626.59c-2.91,1.21-6.04-0.19-6.91-1.12c24.03-30.37,52.18-62.54,76.54-92.65c3.77-4.66,9.56-7.87,14.82-11.06
		c3.42-2.08,15.76-0.82,17.81-1.43c18.61-5.55,39.42-2.25,53.16,9.37c-25.08,20.62-57.77,27.28-87.06,40.09
		c-8.78,3.27-13.49,7.41-10.84,17.24C77.71,1609.45,44.82,1621.01,25.11,1626.59z"/>
	<path d="M101.56,1777.34c-3.89,8.27-29.42,19.35-25.3,0.44c11.62-40.05,20.52-80.79,33.66-120.34
		c9.23,6.47,17.44,12.24,24.71,17.34C131.59,1711.75,117.7,1745.03,101.56,1777.34z"/>
	<path d="M155.69,1769.02c-4.17,9.94-4.86,32.6-20.82,28.79c1.22-36.38,6.5-71.94,9.02-108.25c0.8-9.15,4.3-12.57,13.88-9.71
		c6.04,1.81,12.75,1.4,20.26,2.09C170.37,1712.13,163.57,1740.72,155.69,1769.02z"/>
	<path d="M221.2,1665.7c-2.67,24.34-4.17,48.8-6.72,73.15c-0.62,5.94-0.62,16.62-5.34,17.82c-11.17-4.14-14.4-11.32-13.59-20.76
		c1.57-18.21,3.24-36.42,4.84-54.63c0.14-7.72,4.77-20.06-8.66-18.03c-44.6,6.28-68.24-13.57-96.16-46.04
		c-7.64,5.15-5.79,11.04-2.69,14.6c11.94,13.71,4.1,26.59-2.66,37.59c-13.83,23.54-31.23,45.66-55.44,59.64
		c-0.86-0.68-1.72-1.35-2.58-2.03c10.99-36.09,31.75-69.03,47.28-103.41c7.03-20.95,18.82-35.53,41.41-43.24
		c22.23-7.58,42.56-20.7,64.24-31.64c1.35,30.11,17.52,57.75,28.67,85.29C218.49,1644.29,222.49,1653.96,221.2,1665.7z"/>
	<path d="M623.35,998.53c-12-19.21-24.25-38.28-35.75-57.79c-1.7-2.89,0.1-7.84,0.27-11.83c0.93-0.22,1.86-0.45,2.79-0.67
		c11.08,19.64,28.19,32.1,48.42,40.4C633.63,979,628.69,988.37,623.35,998.53z"/>
	<path d="M538.13,2494.55c-12.36,96.94,14.83,287.12-30.14,364.96c-1.61-0.67-3.23-1.33-4.84-2c3.96-90.17,23.67-182.71,0.04-271.63
		c-17.14-60.12-40.15-104.86-32.3-169.56c0.23-54.94,53.4-84.58,62.7-138.45C560.26,2334.43,540.58,2431.73,538.13,2494.55z"/>
	<path d="M541.28,3004.94c4.71-17.81-2.39-37.06,5.39-56.21C563.52,2970.43,562.32,2981.93,541.28,3004.94z"/>
	<path d="M679.4,2271.38c-24.2,79.4-83.68,144.65-99.46,227c-11.01,71.47-11.97,144.48-20.47,216.12
		c-8.94-130.54,7.12-261.27,8.72-391.95c1.56-59.84-37.89-70.27-30.44-106.92c3.02-18.68,6.39-37.3,9.75-56.72
		c50.29-9.72,56.86-49.97,63.72-91.17c13.4,8.67,24.28,1.96,36.4-7.01c-10.67,52.3-7.33,106.27,45.63,132.65
		C688.65,2219.44,684.2,2245.44,679.4,2271.38z"/>
	<path d="M680.01,1444.63c0.65-0.55,1.31-1.09,1.96-1.64c36.81,34.33,52.22,84.9,64.43,132.34c0.5,18.98-9.12,33.97-14.89,53.87
		C706.6,1567.93,699.99,1504.43,680.01,1444.63z"/>
	<path d="M883.8,1682.62c-4.38,3.36-9.86,5.28-15.1,7.91c-35.11-14.93-56.26-46.99-77.8-76.71c-12.83-16.63-19.14-36.12-26.5-55.41
		c-29.06-74.55-43.3-119.81-118.11-158.91c23.76,5.59,76.87-12.93,86.38-24.01c5.43,10.56,44.48,146.72,60.33,191.88
		c3.92,9.82,9.52,19.6,16.56,27.42c12.42,18.3,53.68,22.51,56.92-3.28c-2.94-88.55-4.47-177.14-5.89-265.72
		c-0.73-25.43-2.3-51.1-14.69-74.35c-4.11-7.71-7.16-3.95-4.35-13.32c1.78-5.94,17.58-15.17,18.67-21.33c0.92-5.22,2.28-31.72,2-40
		c-0.23-6.77,2.3-29.21,0-35.33c-2.88-7.67-8.3-12.57-8-20.67c0.33-8.89,8.61-80.54,8.67-100c0.28-20.15-12.88-41.81,4.98-57.88
		c0.67-1,0.86-0.87,1.72,0c17.86,15.98,4.69,37.9,4.98,57.87c0.06,19.46,8.33,91.11,8.67,100c0.3,8.1-5.12,13-8,20.67
		c-2.3,6.12,0.23,28.57,0,35.33c-0.28,8.28,1.08,34.78,2,40c1.08,6.17,16.89,15.39,18.67,21.33c2.8,9.36-0.24,5.6-4.35,13.32
		c-12.4,23.26-13.97,48.93-14.69,74.35c-1.42,88.58-2.95,177.17-5.89,265.72c3.23,25.85,44.61,21.49,56.92,3.28
		c7.04-7.82,12.64-17.6,16.56-27.42c15.5-45.05,55.47-181.27,60.33-191.88c9.51,11.07,62.61,29.59,86.38,24.01
		c-74.96,39.24-88.97,84.26-118.11,158.91c-7.36,19.28-13.68,38.78-26.5,55.41C928.07,1639.23,910.78,1665.35,883.8,1682.62z"/>
	<path d="M1057.39,1444.63c-19.98,59.8-26.6,123.3-51.5,184.57c-5.78-19.88-15.4-34.89-14.89-53.86
		c12.2-47.44,27.63-98.02,64.43-132.34C1056.09,1443.53,1056.74,1444.08,1057.39,1444.63z"/>
	<path d="M1190.72,2948.74c7.78,19.15,0.68,38.4,5.39,56.21C1175.08,2981.93,1173.88,2970.43,1190.72,2948.74z"/>
	<path d="M1203.81,2277.87c9.3,53.86,62.47,83.52,62.71,138.45c7.84,64.79-15.17,109.38-32.31,169.56
		c-23.63,88.94-3.92,181.45,0.04,271.63c-1.61,0.67-3.23,1.33-4.84,2c-32.23-48.75-25.08-165.09-26.73-224.9
		c4.93-107.2-16.89-213.1-9.92-320.07C1193.8,2302.04,1196.02,2289.9,1203.81,2277.87z"/>
	<path d="M1193.68,2248.48c-27.83,34.12-25.7,77.68-22.32,118.91c-0.06,115.78,16.16,231.45,6.58,347.12
		c-8.51-71.64-9.46-144.66-20.47-216.12c-14.99-77.13-67.62-139.32-94.52-212.15c-10.66-29.67-12.08-62.02-18.78-92.85
		c52.85-26.2,56.34-80.53,45.63-132.65c12.12,8.97,23,15.68,36.4,7.01c6.86,41.2,13.42,81.45,63.72,91.17
		C1191.95,2185.54,1209.8,2226.72,1193.68,2248.48z"/>
	<path d="M1149.8,940.74c-11.5,19.5-23.74,38.57-35.75,57.79c-5.34-10.15-10.28-19.52-15.74-29.89c20.23-8.3,37.34-20.75,48.42-40.4
		c0.93,0.22,1.86,0.45,2.79,0.67C1149.7,932.91,1151.5,937.86,1149.8,940.74z"/>
	<path d="M1602.53,1797.81c-4.89,1.43-9.9-0.58-11.33-3c-15.74-36.08-20.73-73.79-31.82-112.87c7.51-0.69,14.21-0.28,20.26-2.09
		c9.58-2.86,13.08,0.56,13.88,9.71C1596.03,1725.87,1601.31,1761.42,1602.53,1797.81z"/>
	<path d="M1661.13,1777.78c2.02,7.43-2.09,11.9-8.37,10.29c-27.5-3.54-48.01-87.67-50-113.3c7.26-5.1,15.48-10.86,24.71-17.34
		C1640.62,1696.99,1649.52,1737.72,1661.13,1777.78z"/>
	<path d="M1701.78,1714.44c1.83,3.86,2.31,8.36,3.41,12.57c-0.86,0.68-1.72,1.35-2.58,2.03c-24.22-13.99-41.61-36.1-55.44-59.64
		c-6.76-11-14.6-23.88-2.66-37.59c3.1-3.56,4.95-9.45-2.69-14.6c-28,32.54-51.53,52.29-96.16,46.04
		c-13.43-2.03-8.79,10.32-8.66,18.04c1.61,18.21,3.28,36.42,4.84,54.63c0.81,9.44-2.42,16.62-13.59,20.76
		c-4.73-1.2-4.72-11.88-5.34-17.82c-2.55-24.35-4.05-48.82-6.72-73.15c-1.29-11.75,2.71-21.41,7.4-31.7
		c11.15-27.53,27.32-55.18,28.67-85.29c21.68,10.94,42.01,24.06,64.24,31.64c27.28,8.16,35.64,29.04,45.9,51.95
		C1675.59,1659.66,1688.82,1686.98,1701.78,1714.44z"/>
	<path d="M1712.29,1626.59c-19.58-5.52-52.69-17.2-57.53-39.56c2.65-9.83-2.06-13.97-10.84-17.24
		c-29.29-12.8-61.97-19.46-87.06-40.08c13.74-11.63,34.56-14.92,53.16-9.37c2.05,0.61,14.39-0.64,17.81,1.43
		c5.27,3.2,11.06,6.4,14.82,11.06c24.36,30.11,52.51,62.27,76.54,92.65C1718.33,1626.4,1715.2,1627.81,1712.29,1626.59z"/>
	<path d="M1087.72,2253.15c4.17-18.31,8.34-36.62,12.5-54.93c1.57-5.09,3.61-13.22-1.24-16.66c-17.04-1.84-32.66,61.23-27.62,76.09
		c2,7.05,10.23,10.59,14.9,15.98c1.24-6.64,3.98-13.13,3.48-19.97C1089.07,2253.49,1088.4,2253.32,1087.72,2253.15z"/>
	<path d="M1154.64,2236.21c-10.67,14.69-25.78,21.42-42.47,25.86c-4.46,2.66-8.02,7.13-12.13,10.44c4.84,3.31,9.68,6.61,14.53,9.92
		c22.45-2.49,58.72-24.06,51.1-48.85C1161.89,2234.39,1156.33,2233.89,1154.64,2236.21z"/>
	<path d="M638.41,2181.56c-4.85,3.45-2.8,11.57-1.24,16.66c4.16,18.31,8.33,36.62,12.5,54.93c-0.68,0.17-1.35,0.34-2.03,0.51
		c-0.5,6.84,2.24,13.33,3.48,19.97c4.67-5.38,12.9-8.94,14.9-15.98C671.08,2242.9,655.48,2179.72,638.41,2181.56z"/>
	<path d="M625.23,2262.07c-40.37-9.64-34.73-28.51-53.49-28.49c-7.62,24.78,28.64,46.35,51.1,48.85c4.84-3.31,9.68-6.61,14.53-9.92
		C633.25,2269.2,629.69,2264.73,625.23,2262.07z"/>
	<path d="M1590.33,1503.84c-16.56,6.23-37.25,3.67-51.18,15.51c-7.23,15.03-2.63,32.79-6.9,48.7
		c-3.03,18.03-12.33,34.91-20.82,50.56c-19.21-29.51-20.97-60.84-24.6-94.03c-2.1-13.53,9.73-28.14,23.48-28.51
		c9.25-1.5,12.98-12.78,18.78-18.91c4.45,3.2,6.95,5,9.45,6.8"/>
	<path d="M199.85,1486.97c2.5-1.8,16.22,0.9,20.6,5.94c1.5,1.72,4.35,3.1,6.63,3.16c13.76,0.37,25.58,14.98,23.49,28.51
		c-3.63,33.19-5.4,64.52-24.61,94.03c-8.49-15.67-17.78-32.53-20.82-50.56c-4.26-15.91,0.33-33.67-6.89-48.7
		c-13.94-11.84-34.62-9.27-51.18-15.51"/>
	<path d="M694.42,1231.24c8.97-0.98,18.86-2.06,30.53-3.33c8.25,15.51,26.29,14.37,43.41,16.17
		c-17.73,10.92-40.26,15.65-44.31,41.55C713.92,1267.05,703.8,1248.47,694.42,1231.24z"/>
	<path d="M969.04,1244.09c17.11-1.8,35.16-0.66,43.41-16.17c11.67,1.27,21.56,2.35,30.53,3.33c-9.38,17.23-19.5,35.81-29.62,54.39
		C1009.3,1259.74,986.77,1255.01,969.04,1244.09z"/>
	<path class="st3" d="M868.7,416.91"/>
	<path class="st3" d="M978.87,366.14c8.37-17.93-2.71-52.9,23.4-58.33c41.18-11.56,36.69-64.22,31.49-97.28
		c-0.82-4.96-15.25-12.78-21.55-12.72c0.1-62.49-13.88-106.49-64-133c-83.99-47.36-212.5-13.65-221,99c-0.4,10.29-2,24.04-2,34
		c-6.28-0.12-20.77,7.85-21.55,12.72c-5.21,33.03-9.69,85.75,31.48,97.29c26.95,5.72,14.62,42.58,23.06,61
		C859.31,430.57,880,428.99,978.87,366.14z"/>
	<path d="M458.09,2869.92c-46.16,52.15,3.29,52.16-16.51,114.89c-6.63,21.1-11.15,42.85-17.03,64.2
		c-5.97,12.92-20.24,21.04-29.72,31.24c-15.18,13.71-25.86,32.44-38.1,49.32c-1.9,2.63-2.17,6.44-3.2,9.7
		c9.43-6.19,12.83-15.32,24.25-16.72c-0.82,9.04-6.59,15.15-12.33,21.6c0.6,0.96,1.19,1.93,1.79,2.89
		c18.56-3.3,20.21-22.91,38.1-23.65c4.12,13.19-8.7,20.83-10.84,32.57c2.45,1.23,4.89,2.45,4.78,2.39
		c10.08-10.54,18.79-20.01,28.01-28.95c1.55-1.5,5.28-0.76,8.01-1.05c2.62,8.83-4.07,14.48-8.12,21.46
		c-2.74,4.62-5.17,9.43-7.74,14.15c0.62,0.74,1.24,1.49,1.86,2.23c13.62,2.12,43.17-60.89,48.03-29.36
		c-2.2,17.98-37.04,37.48-14.3,42.27c8.33,0.09,28.7,11.17,30.2-1.58c10.48-16.38,17.93-19.71,14.11-41.86
		c-3.64-19.3-0.97-36.89,9.41-53.61c1.99-3.2,1.85-7.84,2.25-11.87c-0.84-10.78,3.03-20.58,5.44-30.71
		c2.59-26.31,4.04-52.75,7.17-78.99c0.98-8.21,4.68-16.82,9.46-23.61c3.81-5.4,6.99-10.08,6.03-16.62
		c-2.42-16.61-5.05-33.19-7.63-50.01c-6.66,4.69-12.54,10.76-20.64,12.99c-12.62,1.99-19.64,1.84-20.99-12.85L458.09,2869.92z"/>
	<path d="M1247.53,2870.38c-1.24,14.09-7.68,15.04-20.99,12.85c-8.1-2.23-13.97-8.31-20.64-12.99c-2.58,16.82-5.21,33.4-7.63,50.01
		c-0.95,6.54,2.23,11.22,6.03,16.62c4.78,6.79,8.48,15.4,9.46,23.61c3.13,26.24,4.58,52.68,7.17,78.99
		c2.41,10.14,6.27,19.93,5.43,30.72c0.4,4.02,0.27,8.67,2.26,11.87c10.38,16.72,13.06,34.32,9.41,53.61
		c-3.84,22.01,3.66,25.57,14.11,41.86c1.39,6.95,5.59,6.9,11.03,5.59c8.47-3.3,34.93-1.53,24.42-16.4
		c-6.67-8.69-27.86-27.89-15.5-38.49c12.01-2.95,30.06,37.95,43.98,37.96c0.62-0.74,1.24-1.49,1.86-2.23
		c-2.57-4.73-5-9.53-7.74-14.15c-4.05-6.97-10.74-12.63-8.12-21.46c2.72,0.29,6.46-0.45,8.01,1.05
		c9.22,8.95,17.93,18.41,28.01,28.95c-0.12,0.06,2.33-1.17,4.78-2.39c-2.13-11.74-14.95-19.39-10.84-32.57
		c17.86,0.73,19.58,20.37,38.1,23.65c0.6-0.96,1.19-1.93,1.79-2.89c-5.74-6.46-11.51-12.56-12.33-21.6
		c11.42,1.4,14.81,10.54,24.25,16.72c-1.02-3.26-1.29-7.07-3.2-9.7c-12.23-16.88-22.92-35.62-38.1-49.33
		c-9.48-10.19-23.75-18.32-29.72-31.23c-5.88-21.35-10.39-43.11-17.03-64.2c-19.8-62.71,29.66-62.72-16.51-114.89L1247.53,2870.38z"
		/>
</g>
<g id="rear">
	<path d="M1903.87,1556.5c-0.69,5.92-1.98,11.7-3.01,17.56c-11.56,5.29-23.2,10.42-34.92,15.33c-6.81,3.89-16.12,0.09-17.16-7.29
		c2.85-10.01,44.41-23.31,55.68-30.49C1904.25,1553.19,1904.07,1554.81,1903.87,1556.5z"/>
	<path d="M2331.97,3020.91c3.54-24.64,11.16-48.8,14.51-73.36c3.23-31.71,2.17-63.15,4.75-95.01
		c10.17,51.15,36.58,185.36-0.55,224.26c-6.22-15.78-12.39-31.02-18.15-46.41C2331.47,3027.53,2331.45,3023.97,2331.97,3020.91z"/>
	<path d="M2432.92,3054.13c-0.94,0.02-1.88,0.04-2.82,0.06v-48.47C2435.18,3021.75,2441.57,3037.77,2432.92,3054.13z"/>
	<path d="M2441.37,2823.99c-23.65,90.22-52.17,186.38-23.65,278.62c0.39,1.87,2.22,3.69,2.05,5.4c-1.94,19.78-3.73,39.6-6.72,59.24
		c-0.46,3-6.53,6.75-10.4,7.27c-5.96,0.81-12.27-0.81-18.42-1.49c-14.04-2.99-32.37,0.48-43.64-9.45
		c-37.19-43.48-17.52-85.06-70.15-119.89c7.36-16.54,25.16-1.21,35.66-14.76c6.42,19.49,12.81,35.81,17.02,52.66
		c3.09,12.39,5.62,16.01,19.24,15.9c0.2,1.45,0.87,3.08,0.53,4.47c-6.38,14.38,13.86,68.72,32.13,55.6
		c21.36-13.86-32.73-37.72,2.35-78.69c23.97-39.08,10.78-127.67,3.68-173.38c-5.56-50.34-5.2-102.09-23.37-150.36
		c-1.94-6.19-1-9.35,3.58-14.15c11.17-11.7,21.01-24.66,31.58-37.34c23.79,33.03,29.3,74.19,48.66,109.44
		C2442.75,2816.23,2442.24,2820.51,2441.37,2823.99z"/>
	<path d="M2933.98,3054.19c-0.94-0.02-1.88-0.04-2.82-0.06c-8.65-16.35-2.26-32.37,2.82-48.41V3054.19z"/>
	<path d="M3040.95,3081.59c4.21-16.86,10.6-33.17,17.02-52.66c10.49,13.56,28.29-1.77,35.66,14.76
		c-52.66,34.86-32.94,76.4-70.15,119.89c-11.26,9.96-29.6,6.43-43.64,9.45c-9.26,1.54-24.35,4.49-28.83-5.78
		c-2.98-19.63-4.77-39.46-6.72-59.24c6.31-22.37,14.12-46.54,14.41-69.44c-0.51-37.07-4.19-74.42-10.43-110.99
		c-4.59-38.57-23.41-76.13-25.71-114.5c19.36-35.25,24.87-76.41,48.66-109.44c10.57,12.68,20.41,25.64,31.58,37.34
		c4.58,4.8,5.52,7.97,3.58,14.15c-18.16,48.29-17.81,100.01-23.35,150.36c-7.1,45.75-20.32,134.15,3.67,173.38
		c35.14,41.2-18.97,64.38,2.35,78.69c18.42,13.21,38.52-41.69,32.13-55.6c-0.33-1.39,0.34-3.02,0.53-4.47
		C3035.33,3097.6,3037.86,3093.98,3040.95,3081.59z"/>
	<path d="M3032.11,3020.91c0.52,3.06,0.5,6.62-0.57,9.47c-5.76,15.39-11.93,30.63-18.15,46.41
		c-37.08-38.69-10.76-173.07-0.55-224.26c2.59,31.86,1.52,63.31,4.76,95.01C3020.95,2972.11,3028.57,2996.27,3032.11,3020.91z"/>
	<path d="M2705.48,531.45c-7.34,72.79-6.66,157.51-9.45,231.87c-0.34,14.35-0.27,80.17,1.7,98.76
		c3.43,32.42-11.24,47.36-15.69,50.56c-4.45-3.2-19.12-18.14-15.69-50.56c4.92-92.57-1.24-182.47-3.53-273.25
		c-0.33-9.39-2.8-54.49-4.22-57.38c-19.66-40-21.83-80.52-5.75-122.35c11.52-32.56,4.22-68.14,3.79-101.9
		c-0.48-8.78-2.54-17.3-14.83-16.16c-18.63-11.13-37.91-20.28-60.73-17.38c-36.13,4.74-32.47-37.15-40.16-61.18
		c-2.87-11.63-2.66-12.26,8.01-13.67c4.31,3.94,7.92,7.23,11.53,10.52c3.68-32.68-4.67-65.62-3.82-98.42
		c-0.17-41.81,47.07-82.8,86.04-89.25c12.95-1.17,26.21-2.41,39.36-2.73c13.15,0.32,26.41,1.55,39.36,2.73
		c39.03,6.46,86.16,47.41,86.05,89.25c0.85,32.8-7.5,65.73-3.82,98.42c3.61-3.29,7.21-6.58,11.53-10.52
		c10.67,1.4,10.88,2.03,8.01,13.67c-2.89,11.71-5.55,23.51-7.69,35.38c-8.14,45.55-50.93,10.56-87.24,40.07
		c-9.93,7.86-18.9-3.6-20.79,19.26c-1.25,23.14-2.56,46.34-2.32,69.49c0.12,10.86,2.21,22.28,6.1,32.41
		C2727.31,450.93,2725.14,491.44,2705.48,531.45z"/>
	<path d="M3461.32,1573.19c-1.69-5.28-2.47-20.32-2.86-22.14c11.46,7.33,53.87,20.94,56.84,31.05c-1.05,7.38-10.34,11.19-17.16,7.29
		C3485.77,1584.21,3473.5,1578.79,3461.32,1573.19z"/>
	<path d="M2621.1,1378.71c18.59,17.91,33.4,38.71,50.34,58.11c5.33,38.57,0.34,79.53,2,119.26
		C2650.9,1539.73,2614.79,1417.75,2621.1,1378.71z"/>
	<path d="M1998.31,1476.29c-16.7,5.47-31.53,15.22-44.44,27.25c-12.67,10.97-20.71,25.98-31.63,38.41
		c-0.11,62.69-19.38,129.16-61.86,176.93c0,9.5,8.78,3.96,9.5,4.5c30.89-13.95,46.38-44.62,67.29-69.49
		c1.91-2.42,4.92-3.08,9.21,2.49c4.89,6.35,2.2,9.26-1.02,15.22c-19.34,31.67-32.57,66.47-47.66,100.27c-0.58,1.32-2.82,9,3.68,8.5
		c16.99-7.73,26.36-18.66,33.88-33.28c12.65-24.59,22.81-50.47,34.25-76.33c14.76,3.19,25.64,1.09,19.34,20.29
		c-7.22,35.56-15.08,66.71-24.46,102.82c17.3,17.11,44.78-98.29,45.33-111.42c1.15-7.75-1.36-14.33,13.55-12.12
		c13.06,1.94,13.18,7.59,13.93,15.43c1.33,13.98,0.75,28.16,2.45,42.08c1.05,4.95,6.92,45.84,11.74,42.53c6.5-0.5,5.04-8.16,5-9
		c-1.24-26.93,8.1-64.43,7.05-117.61c-0.18-42.83,14.31-87,0.62-129.27C2050.49,1503.07,2012.88,1477.78,1998.31,1476.29"/>
	<path d="M3366.44,1476.29c31.91,10.14,55.31,35.82,73.52,63.01c5,12.24,3.43,32.38,5.39,45.43c5.84,43.89,21.68,83.8,47.26,119.95
		c3.16,4.47,9.46,9.12,11.76,14.2c0,9.5-8.78,3.96-9.5,4.5c-30.89-13.95-46.38-44.62-67.29-69.49c-1.91-2.42-4.92-3.08-9.21,2.49
		c-4.89,6.35-2.2,9.26,1.02,15.22c19.34,31.67,32.57,66.47,47.66,100.27c0.58,1.32,2.82,9-3.68,8.5
		c-16.99-7.73-26.36-18.66-33.88-33.28c-12.65-24.59-22.81-50.47-34.25-76.33c-14.76,3.19-25.64,1.09-19.34,20.29
		c7.22,35.56,15.08,66.71,24.46,102.82c-17.32,17.08-44.76-98.27-45.33-111.42c-1.15-7.75,1.36-14.33-13.55-12.12
		c-13.06,1.94-13.18,7.59-13.93,15.43c-1.33,13.98-0.75,28.16-2.45,42.08c-1.04,4.91-6.93,45.86-11.74,42.53c-6.5-0.5-5.04-8.16-5-9
		c1.24-26.93-8.1-64.43-7.05-117.61c0.17-42.83-14.31-87-0.63-129.27C3314.16,1503.72,3350.69,1476.34,3366.44,1476.29"/>
	<path d="M2738.22,1436.88c-10.38,49.24-31.72,108.19-46.9,119.2c1.66-39.7-3.33-80.71,1.99-119.26
		c16.94-19.4,31.74-40.19,50.34-58.11C2745.71,1391.45,2743.25,1413.02,2738.22,1436.88z"/>
	<path d="M2648.54,1120.05c4.29-47.52,13-133.9,8-190c3.71,2.35,14.49,7.6,19.12,8.02c-3.04,4.58,3.06,2.27,7.04,1.57
		c3.99,0.7,10.08,3.01,7.04-1.57c4.63-0.42,15.41-5.66,19.12-8.02c-4.69,79.87,4.69,167.88,14.63,239.74
		c6.67,44.89,16.8,89.66,20.46,135.03c-1.38,38.05-15.36,86.82-60.85,82.33v-0.04c-0.27,0.02-0.54,0.02-0.81,0v0.04
		c-45.31,4.6-59.57-44.39-60.85-82.33C2626.83,1242.72,2642.5,1182.08,2648.54,1120.05"/>
	<path d="M2470.14,2105.94c8.4,48.08,19.33,106.92,28.8,154.87c-15.67,15.06-29.77,28.61-45.21,43.45
		c-12.46-35.09-19.68-63.01-29.85-99.55C2440.39,2169.34,2454.05,2140.4,2470.14,2105.94z"/>
	<path d="M2879.94,2183.76c4.99-26.83,9.68-53.72,14-77.81c16.09,34.45,29.74,63.4,46.26,98.77c-10.16,36.5-17.4,64.49-29.85,99.55
		c-15.44-14.84-29.54-28.38-45.21-43.45C2869.75,2236.89,2874.99,2210.35,2879.94,2183.76z"/>
</g>
<g id="obliques">
	<path class="st4" d="M1108.51,1351.6c0.07,10.51-4.58,16.26-13.35,20.49c-18.26,8.82-36.78,6.99-53.98-1.15
		c-55.87-27.47,16.19-144.92,52.93-169.34C1119.22,1248.28,1105.97,1301.25,1108.51,1351.6z"/>
	<path class="st4" d="M627.93,1263.31c-0.22-21.65,5.39-41.87,15.35-61.71c36.56,24.18,108.87,141.93,52.93,169.34
		c-17.2,8.14-35.71,9.97-53.98,1.15c-8.77-4.24-13.42-9.99-13.35-20.49C629.07,1322.18,628.23,1292.75,627.93,1263.31z"/>
	<path class="st4" d="M698.75,942.8c0.88,0.54,1.77,1.09,2.65,1.63c-2.97,11.8-5.93,23.6-9.24,36.74
		c-8.59-4.19-15.96-7.78-24.6-11.99C678.42,960,688.59,951.4,698.75,942.8z"/>
	<path class="st4" d="M701.76,1174.48c4.24,9.68,7.82,19.64,12.59,31.83c-3.82,0.86-9.62,4.22-13.21,2.62
		c-19.68-8.78-38.42-19.28-52.85-36.04c-12.57-13.99-5.31-31.47-4.86-48.64c17.42,13.35,34.29,25.97,50.74,39.11
		C697.54,1166.05,699.98,1170.41,701.76,1174.48z"/>
	<path class="st4" d="M656.53,980.83c16.98,14.57,46.7,26.38,41.14,53.1c-1.47,7.38,1.88,21.02-2.14,29.55
		C669.07,1040.16,615.66,1021.62,656.53,980.83z"/>
	<path class="st4" d="M684.86,1077.56c8.26,6.16,12.53,12.98,11.54,23.84c-1.09,11.82-0.25,23.81-0.25,37.89
		c-20.88-13.76-40.58-25.64-52.91-45.51c-2.19-18.19-8.38-36.87-8.25-54.94C651.96,1052.07,668.18,1065.13,684.86,1077.56z"/>
	<path class="st4" d="M1069.83,969.19c-8.63,4.21-16.01,7.8-24.6,11.99c-3.3-13.14-6.27-24.94-9.24-36.74
		c0.88-0.54,1.77-1.09,2.65-1.63C1048.81,951.4,1058.98,960,1069.83,969.19z"/>
	<path class="st4" d="M1043.23,1163.36c16.45-13.14,33.31-25.77,50.74-39.11c0.46,17.16,7.71,34.65-4.86,48.64
		c-14.43,16.76-33.17,27.26-52.85,36.04c-3.59,1.6-9.39-1.76-13.21-2.62C1030.48,1189.98,1032.05,1175.34,1043.23,1163.36z"/>
	<path class="st4" d="M1103.05,1042.02c-9.19,61.6-7.19,61.6-61.8,97.26c0-14.07,0.84-26.07-0.25-37.89
		c-1-10.86,3.27-17.68,11.53-23.84c16.68-12.43,32.89-25.49,49.86-38.72C1102.57,1039.58,1103.24,1040.88,1103.05,1042.02z"/>
	<path class="st4" d="M1088.32,1027.26c-11.51,10.37-32.76,25.87-46.45,36.22c-4.01-8.53-0.66-22.17-2.14-29.55
		c-5.56-26.73,24.14-38.51,41.14-53.1C1097.63,997.88,1100.71,1016.09,1088.32,1027.26z"/>
</g>
<g id="quads">
	<path class="st4" d="M576.57,1569.75c6.14-58.61,7.65-118.69,31.32-173.67c3.33,56.65,17.32,111.53,36.83,164.47
		c33.67,109.06,60.49,225.76,34.76,339.05c-6.93,37.54-16.59,74.57-25.08,111.82c-3.1,13.59-11.14,23.21-24.31,29.62
		c-10.62-16.19-14.07-33.7-16.62-51.58c-6.05-42.32-12.69-84.56-18.37-126.93C583.95,1765.49,569.65,1667.58,576.57,1569.75z"/>
	<path class="st4" d="M541.47,1789.81c0.77-38.74,4.83-61.64,8.07-100.33c0.15-1.85,1.95-19.4,4.49-21.27
		c8.11,116.22,20.76,232.05,39.4,347.07c-2.49,32.78-8.82,66.11-18.79,97.54c-4.34,12.78-15.34,18.55-31.55,22.01
		c7.22-59.59,14.67-115.42,6.07-174.71C543.8,1903.64,541.54,1846.47,541.47,1789.81z"/>
	<path class="st4" d="M702.24,2169.69c-19.99-6.97-36.61-34.87-35.99-56.05c0.66-26.42,1.07-53.03,4.67-79.13
		c6.21-36.36,18.78-71.82,25.21-108.31c1.18,0.07,2.35,0.14,3.53,0.2C697.68,2008.28,708.82,2087.39,702.24,2169.69z"/>
	<path class="st4" d="M1035.15,2169.69c-6.58-82.29,4.57-161.42,2.58-243.29c1.18-0.07,2.35-0.13,3.53-0.2
		c6.43,36.49,19,71.96,25.22,108.31c3.6,26.1,4.02,52.71,4.67,79.13C1071.72,2134.95,1055.21,2162.61,1035.15,2169.69z"/>
	<path class="st4" d="M1182.45,1685.66c0.54-5.8,0.63-11.63,0.93-17.45c16.94,80.95,12.93,162.55,8.53,245.01
		c-0.66,15.66-1.56,31.38-3.67,46.9c-8.6,59.3-1.15,115.11,6.07,174.71c-16.21-3.46-27.21-9.23-31.55-22.01
		c-9.97-31.43-16.3-64.77-18.79-97.54C1162.11,1906.01,1173.24,1795.99,1182.45,1685.66z"/>
	<path class="st4" d="M1124.76,1440.55c1.77-14.8,3.18-29.64,4.75-44.47c52.52,149.43,31.11,312.48,12.81,466.45
		c-5.68,42.37-12.32,84.61-18.37,126.93c-2.56,17.88-6,35.39-16.62,51.58c-13.17-6.4-21.21-16.03-24.31-29.62
		c-8.49-37.25-18.16-74.28-25.08-111.82C1018.88,1742.21,1093.28,1591.68,1124.76,1440.55z"/>
	<path class="st4" d="M2582.63,2074.08c-10.99,81.22-8.76,165.14-39.63,242.23c-0.83-0.18-1.66-0.37-2.49-0.55
		c-3.85-92.97,25.05-180.68,44.5-270.06C2584.22,2055.16,2583.64,2064.64,2582.63,2074.08z"/>
	<path class="st4" d="M2823.58,2315.76c-0.83,0.18-1.66,0.37-2.49,0.55c-33.01-86.14-30.72-180.06-42-270.61
		C2798.53,2135.07,2827.43,2222.78,2823.58,2315.76z"/>
	<path class="st4" d="M2966.05,1727.74c3.64-25.8,5.56-51.84,8.27-77.77c9.4,106.34,20.07,212.61,2.52,319.66
		C2961.6,1889.31,2951.78,1808.93,2966.05,1727.74z"/>
	<path class="st4" d="M2402.11,1755.27c10.11,71.9-1.6,143.25-14.2,214.35c-17.53-106.98-6.89-213.08,2.52-319.66
		C2393.55,1685.16,2397.64,1720.25,2402.11,1755.27z"/>
</g>
<g id="lower_abs">
	<path class="st4" d="M892.44,1308.76c-1.2-21.53,8.06-57.06,33.89-57.87c20.06,0.85,37.43,12.93,54.76,21.85
		c46.77,30.92-35.68,203.46-45.71,256.38c-4.91,15.49-10.7,30.8-17.48,45.55c-3.98,8.66-11.78,14.45-25.72,16.05
		C891.87,1496.02,895.95,1403.2,892.44,1308.76z"/>
	<path class="st4" d="M843.56,1429.43c0.2,54.44,2.25,106.37,1.67,161.3c-13.94-1.6-21.74-7.39-25.72-16.05
		c-6.78-14.75-12.57-30.06-17.47-45.55c-14.69-64.93-73.74-184.78-56.68-242.49c1.69-5.33,6.17-11.05,10.97-13.88
		c17.32-8.93,34.7-20.99,54.75-21.86c25.85,0.79,35.07,36.38,33.89,57.87C843.61,1348.96,843.48,1389.21,843.56,1429.43z"/>
</g>
<g id="upper_abs">
	<path class="st4" d="M830.2,1220.81c-15.94,0.6-48.95,1.37-63.9,2.52c-48.58,0-32.61-58.85-4.82-76.82
		c12.17-7.72,29.15-11.23,43.39-10.37c22,1.33,38.67-1.33,38,25.33C842.62,1171.38,846.32,1220.2,830.2,1220.81z"/>
	<path class="st4" d="M841.53,1097.47c-2.36,15.27-12.92,12.46-28,14c-16.85,1.72-36.55,5.65-54,5.33c-3.13,0.31-9.33,0-8.73-7.66
		c0.49-18.75-0.8-36.51,0.06-54.68c3.96-36.65,45.23-40.73,73.69-46.03c14.35,2.59,22.96,1.68,21.65,17.03
		C844.48,1045.6,844.61,1077.53,841.53,1097.47z"/>
	<path class="st4" d="M835.28,973.59c-13.65,16.32-68.1,35.82-77.65,7.93c-2.29-21.02-0.68-47.52,16.48-62.34
		c10.79-10.89,27.82-15.13,40.2-22.02c15.73-8.6,29.72-2.05,32.04,15.74C846.71,932.12,848.49,957.39,835.28,973.59z"/>
	<path class="st4" d="M891.06,912.9c2.31-17.8,16.31-24.35,32.04-15.74c12.37,6.88,29.42,11.13,40.2,22.02
		c17.17,14.82,18.77,41.32,16.48,62.34c-9.55,27.92-64,8.37-77.65-7.92C888.9,957.39,890.69,932.12,891.06,912.9z"/>
	<path class="st4" d="M912.85,1008.44c36.47,5.34,80.78,14.64,73.75,62.41c-0.02,12.55-0.01,25.09-0.01,38.29
		c0.6,7.66-5.6,7.97-8.73,7.66c-17.45,0.32-37.15-3.61-54-5.33c-15.08-1.54-25.64,1.27-28-14c-3.08-19.95-2.95-51.87-4.67-72
		C889.89,1010.13,898.5,1011.04,912.85,1008.44z"/>
	<path class="st4" d="M894.53,1161.47c-0.67-26.67,16-24,38-25.33c14.24-0.86,31.22,2.64,43.39,10.37
		c12.56,7.97,22.01,25.3,25.77,39.42c10.9,54.7-62.81,32.56-94.5,34.88C891.08,1220.2,894.78,1171.38,894.53,1161.47z"/>
</g>
<g id="biceps">
	<path class="st4" d="M1321.38,949.42c6.32,32.04,10.75,64.39,22.81,94.91c4.38,11.09,1.77,21.29-1.07,31.47
		c-9.1,24.18-31.5-4.62-40.94-14.49c-45.47-56.52-100.53-109.63-115.71-183.41c-11.2-46.79-29.5-99.32-16.1-146.69
		c14.62,16.1,27.32,34.66,44.25,47.74C1271.08,819.89,1305.48,882.88,1321.38,949.42z"/>
	<path class="st4" d="M393.2,1044.33c12.06-30.53,16.5-62.87,22.81-94.91c15.91-66.54,50.3-129.52,106.75-170.46
		c16.93-13.08,29.63-31.65,44.25-47.75c13.39,47.43-4.89,99.87-16.1,146.69c-8.74,38.05-25.58,71.95-49.51,102.36
		c-28.37,33.92-53.69,71.03-86.49,100.89C393.29,1098.24,387.14,1058.88,393.2,1044.33z"/>
</g>
<g id="side_delts">
	<path class="st4" d="M1200.69,585.18c126.41,45.39,84.46,151.46,97.07,254.31c-1.03,0.25-2.07,0.5-3.1,0.75
		c-12.11-31.65-10.13-65.6-13.92-98.74c-1.69-60.72-34.1-116.67-81.27-154.4C1199.88,586.45,1200.28,585.81,1200.69,585.18z"/>
	<path class="st4" d="M443.11,704.83c0.74-59.36,40.08-99.46,93.6-119.66c0.41,0.64,0.82,1.27,1.22,1.91
		c-47.17,37.73-79.58,93.68-81.27,154.4c-3.79,33.14-1.81,67.09-13.92,98.74c-1.03-0.25-2.07-0.5-3.1-0.75
		C446.43,794.98,440.36,749.64,443.11,704.83z"/>
</g>
<g id="front_delts">
	<path class="st4" d="M1087.91,583.97c25.07,1.54,50.15,2.96,75.2,4.77c78.74,36.48,104.22,127.51,101.68,208.77
		c-34.88-29.49-75.62-54.02-80.83-103.1c-7.14-51.26-52.96-85.93-96.8-107.66C1087.41,585.83,1087.66,584.9,1087.91,583.97z"/>
	<path class="st4" d="M564.41,592.65c2.9-1.94,6.49-3.66,9.88-3.91c25.05-1.82,50.13-3.23,75.2-4.77c0.25,0.93,0.51,1.86,0.76,2.79
		c-43.82,21.72-89.67,56.41-96.81,107.66c-5.22,49.09-45.94,73.59-80.83,103.1C470.06,717.75,493.27,636.46,564.41,592.65z"/>
</g>
<g id="upper_pecs">
	<path class="st4" d="M784.22,622.98c7.82,3.11,15.31,7.03,25.82,11.92c-129.33,15.2-116.44-1.18-235.92,65.75
		c-10.78-43.37,61.51-92.59,98.46-103.86C711.89,583.94,747.9,611.75,784.22,622.98z"/>
	<path class="st4" d="M1151.82,694.37c-109.75-61.75-106.54-44.7-224.46-59.47c32-15.61,60.82-25.78,93.39-37.97
		c14.41-5.16,28.98-5.1,44.07-0.14c36.96,11.29,109.2,60.43,98.46,103.86C1158.56,698.06,1155.24,696.12,1151.82,694.37z"/>
</g>
<g id="rear_delts">
	<path class="st4" d="M2365.97,632.45c-20.5,55.14-68.38,83.04-114.16,115.79c0-16.83,0.71-30.23-0.19-43.52
		c-2.21-34.91-15.71-71.13,6.07-102.8c22.25-44.28,65.55-57.1,109.93-70.23c32.7-10.57,73.84,2.38,92.81,28.59
		c-19.91,17.96-44.5,30.9-67.65,44.21C2379.7,611.11,2370.13,620.68,2365.97,632.45z"/>
	<path class="st4" d="M2971.3,604.47c-23.16-13.31-47.74-26.24-67.66-44.21c18.94-26.19,60.12-39.2,92.81-28.59
		c44.39,13.15,87.68,25.94,109.93,70.23c21.78,31.67,8.28,67.89,6.07,102.8c-0.9,13.29-0.19,26.7-0.19,43.52
		c-45.77-32.74-93.67-60.66-114.17-115.79C2993.95,620.68,2984.38,611.11,2971.3,604.47z"/>
</g>
<g id="lower_pecs">
	<path class="st4" d="M836.87,832.14c-0.2,14.94-20.55,23.82-34.43,30.52c-13.86,6.69-26.64,15.61-43.33,14.58
		c-30.67-4.61-61.37-9-91.99-13.96c-30.13-5.76-66.36-10.26-66.84-48.03L836.87,832.14z"/>
	<path class="st4" d="M1137.12,815.26c-0.21,37.41-36.98,42.49-66.84,48.03c-30.61,4.96-61.32,9.35-91.98,13.96
		c-16.68,1.02-29.47-7.89-43.33-14.58c-13.88-6.7-34.23-15.58-34.43-30.52L1137.12,815.26z"/>
</g>
<g id="middle_pecs">
	<path class="st4" d="M836.87,823.14c-0.54-42.38-8-104.11-6.92-145.67c0.95-24.21-8.38-26.09-27.13-24.82
		c-32.27,2.17-64.54,4.43-96.72,7.64c-42.33,2.98-78.39,27.33-116.41,43.84c-13.81,6.52-14.18,6.94-9.3,21.52
		c9.77,29.2,18.1,49.49,19.88,80.62L836.87,823.14z"/>
	<path class="st4" d="M1137.12,806.26c1.79-31.13,10.11-51.42,19.88-80.62c4.88-14.58,4.52-15-9.3-21.52
		c-38.01-16.52-74.08-40.87-116.4-43.84c-32.17-3.21-64.45-5.47-96.72-7.64c-18.76-1.26-28.08,0.61-27.13,24.82
		c1.13,41.72-6.33,103.1-6.92,145.67L1137.12,806.26z"/>
</g>
<g id="hamstrings">
	<path class="st4" d="M2531.32,2197.1c-3.27,20.53-4.01,41.46-8.05,62.59c-18.11-71.91-31.86-143.98-31.61-218.42
		c-3.53-75.21,10.46-150.69,16.61-225.66c2.91-24.74,11.63-48.8,17.73-73.17c2.43-9.72,9.72-7.18,16.98-6.99
		c-14.75,79.97,23.96,154.86,26.62,234.34C2565.94,2046.45,2544.81,2121.79,2531.32,2197.1z"/>
	<path class="st4" d="M2832.75,2197.1c-13.48-75.3-34.62-150.65-38.28-227.31c2.66-79.48,41.38-154.36,26.62-234.33
		c7.27-0.18,14.55-2.73,16.98,6.99c6.1,24.36,14.82,48.43,17.73,73.17c6.15,74.97,20.14,150.45,16.62,225.66
		c0.24,74.44-13.51,146.51-31.62,218.42C2836.76,2238.56,2836.02,2217.63,2832.75,2197.1z"/>
	<path class="st4" d="M2959.49,2006.98c10.73,63.69,14.28,127.56,11.8,192.08c-1.22,0.26,1.47,11.41,0.25,11.66
		c-26.68-54.75-57.54-110.09-67.55-170.73c-18.65-101.07-7.33-208.14-48.88-303.96c59.74-6.11,53.63,27.45,89.55,23.35
		c-3.14,34.68-4.64,68.59-3.93,103.17C2944.71,1910.72,2954.91,1958.7,2959.49,2006.98z"/>
	<path class="st4" d="M2440.05,1757.03c27.01-18.75,35.84-22.93,69.59-21c-41.55,95.81-30.24,202.89-48.89,303.96
		c-10.01,60.64-40.87,115.97-67.54,170.73c-1.22-0.26,1.47-11.41,0.25-11.66c-4.95-87.15,8.94-172.84,20.21-258.95
		c12.08-59.99,12.83-119.94,6.41-180.73C2427.87,1761.09,2434.28,1759.74,2440.05,1757.03z"/>
</g>
<g id="rhomboids">
	<path class="st4" d="M2466.9,577.63c15.47,23.08,47.49,125.96,49.71,161.34c-11.5-4.19-23.4-5.95-32.07-12.21
		c-36.75-26.03-66.98-57.49-96.65-91.72C2420.3,624.34,2444.27,601.93,2466.9,577.63z"/>
	<path class="st5" d="M2506.7,782.74c-31.79-2.06-91.39,14.94-112.82-11.93c-8.61-11.53-10.41-27.06-13.6-40.63
		c-7.01-27.98-11.05-53.66-1.8-82.43c37.72,51.7,72.28,106.78,141,114c8.17,0.94,9.43,3.2,12.98,19.75
		C2532.36,781.07,2508.9,782.67,2506.7,782.74z"/>
	<path class="st4" d="M2976.18,635.05c-29.67,34.22-59.9,65.7-96.65,91.72c-8.67,6.26-20.57,8.02-32.07,12.21
		c2.22-35.38,34.24-138.26,49.71-161.34C2919.81,601.93,2943.77,624.34,2976.18,635.05z"/>
	<path class="st5" d="M2983.8,730.18c-7.57,53.91-30.1,59.02-79.93,54.66c-22.27-1.27-50.58-2.48-72.24-3.34
		c3.55-16.55,4.81-18.81,12.98-19.75c68.74-7.23,103.25-62.28,141-114C2994.84,676.52,2990.82,702.21,2983.8,730.18z"/>
</g>
<g id="lower_back">
	<path class="st4" d="M2927.16,1320.77c-0.87,0.62,3.25,10,2.38,10.62c-25.33-36-57.21-59.36-84.79-86.07
		c22.21-29.81,39.35-62.4,58.43-94.18C2911.27,1208.32,2919.21,1264.54,2927.16,1320.77z"/>
	<path class="st4" d="M2436.91,1320.77l23.98-169.64c19.08,31.78,36.23,64.36,58.43,94.18c-27.58,26.71-59.45,50.07-84.79,86.07
		C2433.67,1330.77,2437.79,1321.38,2436.91,1320.77z"/>
</g>
<g id="hip_abductor">
	<path class="st4" d="M2411.86,1482.02c-1.37-125.09,26.88-129.66,110.69-207.76c6.03-5.16,14.42-7.69,21.99-10.82
		c1.21-0.5,3.95,1.85,5.57,3.33c15.23,16.59,44.57,32.22,48.19,55.16c4.5,27.8-10.22,44.86-33.16,57.01
		c-26.53,14.05-52.8,28.59-79.51,42.26c-28.87,14.52-51.88,35.85-71.09,61.51C2409.87,1493.38,2412.75,1482.25,2411.86,1482.02z"/>
	<path class="st4" d="M2773.79,1304.84c13.03-13.28,27.09-25.53,40.86-38.08c1.62-1.48,4.36-3.83,5.57-3.33
		c7.56,3.13,15.96,5.66,21.99,10.82c83.79,78.04,112.11,82.88,110.68,207.77c-0.89,0.23,1.99,11.36-2.66,0.69
		c-19.21-25.67-42.21-46.99-71.09-61.51c-29.84-18.61-92.58-40.26-108.48-68.47C2763.79,1340.39,2763.16,1317.16,2773.79,1304.84"/>
</g>
<g id="neck">
	<path class="st4" d="M942.85,507.79c-17.42,31.96-37.16,62.51-59.13,91.53c-10.15-44.6,11.9-64.03,27.06-102.47
		c17.16-30.06,27.34-62.77,36.65-95.76c2.27-8.05,6.81-11.85,14.78-14.47C957.54,427.66,962.86,469.83,942.85,507.79z"/>
	<path class="st4" d="M826.62,496.84c15.15,38.41,37.22,57.93,27.06,102.47c-21.97-29.02-41.7-59.56-59.13-91.53
		c-20.01-37.96-14.7-80.12-19.36-121.18c7.96,2.63,12.51,6.42,14.78,14.47C799.28,434.07,809.46,466.78,826.62,496.84z"/>
	<path class="st4" d="M2770.75,350.01c-0.78-0.23-1.57-0.47-2.35-0.7v-52.81c5.72,1.23,10.33,2.22,16.79,3.61
		C2780.2,317.36,2775.47,333.68,2770.75,350.01z"/>
	<path class="st4" d="M2578.89,300.11c6.46-1.39,11.07-2.38,16.79-3.61v52.81c-0.78,0.23-1.57,0.47-2.35,0.7
		C2588.61,333.68,2583.88,317.36,2578.89,300.11z"/>
	<path class="st4" d="M948.43,537.18c12.75,23.34,31.13,39.76,60.56,44.71c-21.73,12.27-45.6,17.6-68.68,26.81
		c-2.71,0.94-7.83-0.18-9.55-2.24c-3.62-5.72-16.47-19.08-13.45-25.51C927.5,566.33,937.93,551.88,948.43,537.18z"/>
	<path class="st4" d="M820.09,580.95c3.07,6.35-9.88,19.85-13.45,25.51c-1.72,2.06-6.85,3.18-9.55,2.24
		c-23.09-9.21-46.93-14.54-68.68-26.81c29.42-4.95,47.8-21.37,60.56-44.71C799.47,551.88,809.89,566.33,820.09,580.95z"/>
</g>
<g id="upper_traps">
	<path class="st4" d="M2860.49,482.86c0.57,0.28,0.73,1.42,1.86,3.8c-46.58-5.76-89.47,3.12-129.63,24.9
		c-2.27-4.08,0.49-7.22,1.09-11.27c8.03-28.54,7.66-57.57-2.28-84.89c-10.48-28.82-8.41-57.64-8.4-87
		c0.01-16.13,9.99-20.38,22.85-26.07c1.23,31.21-5.65,62.77,12.68,89.3C2785.88,429.43,2817.73,462.29,2860.49,482.86z"/>
	<path class="st4" d="M2503.58,482.86c42.77-20.57,74.61-53.43,101.83-91.23c18.33-26.54,11.44-58.07,12.68-89.3
		c12.86,5.69,22.84,9.95,22.84,26.07c0.01,29.35,2.08,58.18-8.4,87c-9.93,27.31-10.3,56.35-2.28,84.89
		c0.6,4.06,3.36,7.15,1.09,11.27c-40.16-21.78-83.05-30.66-129.63-24.9C2502.85,484.28,2503.01,483.14,2503.58,482.86z"/>
	<path class="st4" d="M1076.44,559.99c-42.13,7-109.98,9.17-117.51-45.23c3.79-12.72,8.06-25.29,12.25-38.15
		C1001.42,510.68,1040.03,533.6,1076.44,559.99z"/>
	<path class="st4" d="M766.22,476.61c4.18,12.86,8.46,25.43,12.25,38.15c-7.57,54.4-75.35,52.21-117.51,45.23
		C697.37,533.6,735.97,510.68,766.22,476.61z"/>
</g>
<g id="lower_traps">
	<path class="st4" d="M2648.89,897.84c-38.22-33.7-67.37-74.59-92.04-118.6c-47.38-79.18-33.34-227.42-131.06-267.75
		c65.91-11.45,213.43-22.98,216.21,71.42c-0.14,56.85,2.33,113.69,2.8,170.54c2.11,47.56-12.27,97.24,6.17,142.92
		C2650.27,896.87,2649.58,897.35,2648.89,897.84z"/>
	<path class="st4" d="M2807.24,779.25c-24.68,44-53.84,84.9-92.05,118.6c-0.69-0.49-1.39-0.98-2.08-1.46
		c18.44-45.67,4.06-95.37,6.18-142.92c0.47-56.85,2.93-113.7,2.8-170.54c2.94-94.51,150.04-82.8,216.2-71.43
		C2840.58,551.82,2854.62,700.05,2807.24,779.25z"/>
</g>
<g id="forearms">
	<path class="st4" d="M157.27,1494.35c159.23-135.97,78.75-370.3,224.46-424.25c2.42,13.34,7.49,25.54,24.15,26.67
		c14.92,1.01,22.43-11.81,34.45-19.7c3.21,31.37-23.04,49.23-41.35,70.07c-82.3,80.78-103.09,200.21-176.97,287.62
		c-9.98,14.95-22.28,29.85-25.6,47.97"/>
	<path class="st4" d="M236.44,1461.1c-5.62,7.71-11.55,9.83-21.26,3.56c61.31-70.96,103.82-152.87,144.14-236.86
		c0.74-1.44,1.52-3.16,2.78-3.99c14.76-9.74,29.62-19.33,44.46-28.95c0.5,0.79,0.99,1.58,1.49,2.37
		C361.78,1292.07,299.98,1377.27,236.44,1461.1z"/>
	<path class="st4" d="M435.34,1231.77c-31.56,48.63-66.55,99.72-110.1,136.87c40.2-56.17,75.79-115.5,102.31-179.42
		c4.8-10.43,20.25-8.15,29.77-11.62c0.92,0.87,1.83,1.74,2.75,2.61C451.92,1197.45,445.22,1215.58,435.34,1231.77z"/>
	<path class="st4" d="M470.4,1131.76c-6.62,10.11-0.18,31.89-16.04,33.3c-25.47,2.09-44.46,15.21-67.11,25.87
		c22.36-35.51,62.1-55.25,72.6-98.65C465.99,1105.61,477.69,1115.47,470.4,1131.76z"/>
	<path class="st4" d="M1272.35,1154.6c-5.3-34.81-15.78-28.76,5.2-62.32c10.5,43.4,50.25,63.14,72.6,98.65
		c-22.64-10.66-41.65-23.78-67.11-25.87C1276.66,1164.44,1273.3,1161.3,1272.35,1154.6z"/>
	<path class="st4" d="M1408.93,1367.95c-52.84-55.67-102.6-115.95-131.61-187.74c0.92-0.87,1.83-1.74,2.75-2.61
		c9.48,3.44,25.02,1.23,29.77,11.62c26.52,63.92,62.11,123.25,102.31,179.42C1410.41,1368.91,1409.53,1368.56,1408.93,1367.95z"/>
	<path class="st4" d="M1329.36,1197.23c0.5-0.79,0.99-1.58,1.49-2.37c14.83,9.63,29.69,19.22,44.46,28.95
		c1.26,0.83,2.04,2.55,2.77,3.99c40.32,83.98,82.84,165.91,144.14,236.86c-9.71,6.27-15.65,4.15-21.26-3.56
		C1437.42,1377.27,1375.62,1292.07,1329.36,1197.23z"/>
	<path class="st4" d="M1537.26,1469.59c-39.91-63.05-85.76-122.03-113.04-192.25c-25.15-64.27-70.07-114.85-116.89-164.24
		c-8.71-10-10.54-22.08-10.27-36.02c12.02,7.89,19.53,20.72,34.45,19.7c16.66-1.13,21.74-13.33,24.15-26.67
		c145.43,53.55,65.55,288.83,224.46,424.25"/>
	<path class="st4" d="M3276.11,1439.28c-42.85-51.84-76.56-111.52-114.43-166.97c-24.17-30.4-44.36-63.15-61.66-97.65
		c-12.55-30.58-10.45-64.68-12.15-97.45c23.39,20.31,42.16,44.15,39.65,75.08c-3.9,23.43,10.23,29.05,31.62,28.22
		c18.63,93.93,81.25,170.95,119.48,257.33C3277.78,1438.33,3276.95,1438.8,3276.11,1439.28z"/>
	<path class="st4" d="M3222.68,1277.4c-23.42-41.67-45.36-88.29-48.1-136.2c1.5-32.35,7.59-64.49,11.09-91.49
		c53.84,104.43,78.86,222.97,98.12,342.23C3262.89,1354.28,3244.49,1314.6,3222.68,1277.4z"/>
	<path class="st4" d="M3357.02,1469.76c-2.8-0.02-27.55,2.57-30.78,3.26c-26.28-89.49-31.15-183.11-57.15-272.51
		c-15.93-55.71-38.21-108.57-64.06-160.19C3346.99,1201.51,3269.1,1328.61,3357.02,1469.76"/>
	<path class="st4" d="M2237.72,1156.83c-4.83-32.54,14.53-58.44,39.17-79.61c-0.19,21.93-1.54,42.07-3.7,63.64
		c-6.9,50.12-41.51,91.22-70.11,131.46c-37.88,55.45-71.58,115.13-114.44,166.97c-0.83-0.48-1.67-0.96-2.5-1.43
		c38.23-86.39,100.86-163.4,119.48-257.33C2225.18,1181.11,2239.32,1176.9,2237.72,1156.83z"/>
	<path class="st4" d="M2007.72,1469.76c87.7-140.52,10.31-268.89,151.98-429.44c-25.85,51.62-48.12,104.48-64.05,160.2
		c-26.01,89.4-30.87,183.02-57.15,272.51C2030.32,1470.84,2016.16,1469.82,2007.72,1469.76"/>
	<path class="st4" d="M2096.99,1302.1c17.67-88.29,41.82-174.29,82.09-252.4c3.5,27,9.59,59.14,11.09,91.49
		c-8.17,92.04-71.25,168.85-109.21,250.74C2085.81,1361.87,2091.03,1331.86,2096.99,1302.1z"/>
	<path class="st4" d="M259.02,1490.11c-5.03-4.57-9.47-8.59-14.53-13.18c10.94-13.26,21.43-25.97,31.91-38.68
		c0.5,0.24,0.99,0.48,1.49,0.72C271.76,1455.6,265.62,1472.23,259.02,1490.11z"/>
	<path class="st4" d="M1478.38,1490.11c-6.6-17.88-12.74-34.51-18.87-51.13c0.5-0.24,0.99-0.48,1.49-0.72
		c10.48,12.71,20.97,25.41,31.91,38.68C1487.84,1481.52,1483.41,1485.54,1478.38,1490.11z"/>
	<path class="st4" d="M3282.88,1473.14c0.52-0.39,1.03-0.79,1.55-1.18c5.79,5.23,11.58,10.46,18.13,16.38
		c-4.12,2.51-6.83,4.17-10.38,6.33C3288.69,1486.6,3285.78,1479.87,3282.88,1473.14z"/>
	<path class="st4" d="M2061.52,1488.34c6.55-5.92,12.34-11.15,18.13-16.38c0.52,0.39,1.03,0.79,1.55,1.18
		c-2.91,6.73-5.81,13.46-9.3,21.53C2068.36,1492.51,2065.64,1490.85,2061.52,1488.34z"/>
</g>
<g id="triceps">
	<path class="st4" d="M581.54,874.63c-5.09,84.32-58.49,150.7-101.82,219.62c-6.05-9.88-13.42-20.41-18.89-31.86
		c-1.47-3.06,1.65-10,4.69-13.28c63.12-64.34,96.49-124.14,115.64-212.24c0.9,0.07,1.8,0.14,2.7,0.21
		C583.1,849.6,582.64,862.14,581.54,874.63z"/>
	<path class="st4" d="M1220.95,1037.01c-42.33-58.75-68.39-126.89-67.41-199.93c0.9-0.07,1.8-0.14,2.7-0.21
		c19.17,88.18,52.52,147.89,115.64,212.24c3.04,3.28,6.16,10.22,4.69,13.29c-5.48,11.44-12.85,21.98-18.89,31.86
		C1245.17,1074.77,1232.97,1055.94,1220.95,1037.01z"/>
	<path class="st4" d="M3136.56,860.5c-24.74-13.81-78.91-97.29-81.58-124.65C3127.67,791.31,3122.55,764.09,3136.56,860.5z"/>
	<path class="st4" d="M2235.57,809.37c2.69-21.46,15-34.99,33.33-44.89c14.47-8.39,26.53-18.43,40.19-28.63
		c-2.67,27.36-56.84,110.83-81.58,124.65C2230.4,842.44,2233.49,825.97,2235.57,809.37z"/>
	<path class="st4" d="M2348.08,930.21c-25.38,105.41-33.75,74.3-97.46,143.17c-0.23-47.82,12.14-61.71,31.38-102.87
		c15.46-30.32,10.52-66.67,28.81-95.84c10.27-14.87,22.97-30.85,37.96-41C2349.16,866.28,2357.77,898.18,2348.08,930.21z"/>
	<path class="st4" d="M2355.22,780.18c-29.6,51.29-74.83,89-83.62,151.45c-6.48,27.95-19.54,53.88-29.44,80.67
		c-15.47,42.11-14.31,88.17-27.18,130.87c-0.94-0.07-1.88-0.14-2.82-0.2c-15.6-81.49-41.8-185.33,23.02-261.6
		c36.15-33.92,59.16-75.14,84.71-116.41c15.34-24.69,12.66-60.94,41.43-77.22C2369.01,720.03,2369.48,749.58,2355.22,780.18z"/>
	<path class="st4" d="M3002.74,687.73c28.79,16.3,26.08,52.5,41.43,77.22c25.54,41.25,48.57,82.5,84.71,116.41
		c64.85,76.42,38.64,179.88,23.03,261.6c-0.94,0.07-1.88,0.14-2.82,0.2c-12.86-42.7-11.71-88.76-27.18-130.86
		c-6.24-17.2-14.14-33.74-20.2-51.02c-11.81-30.31-13.38-62.99-31.22-91C3031.25,804.69,2979.68,774.2,3002.74,687.73z"/>
	<path class="st4" d="M3076.25,1037.79c-39.7-22.94-50.1-66.33-60.25-107.59c-9.7-32.03-1.09-63.92-0.7-96.54
		c14.99,10.13,27.7,26.14,37.97,41c18.29,29.17,13.35,65.53,28.81,95.84c18.99,40.41,31.8,55.97,31.37,102.87
		C3101.98,1060.79,3089.93,1047.76,3076.25,1037.79z"/>
</g>
<g id="glutes">
	<path class="st4" d="M2562.82,1708.97c-25.69,2.86-52.25,1.53-78.15,2.95c-23.18-0.28-39.16,12-58.11,24.66
		c-13.94-70.38-11.98-141.97-12.42-213.37c11.46-36.47,49.68-66.42,83.49-83.5c37.72-17.44,73.02-35.44,109.07-57.01
		c-6.94,77.72,17.38,121.06,45.4,189.59C2671.79,1644.75,2637.05,1698.25,2562.82,1708.97z"/>
	<path class="st4" d="M2761.84,1384.49c34.82,20.86,69.46,38.26,105.95,55.21c33.76,17.03,72.06,47.07,83.49,83.49
		c-0.44,71.41,1.52,142.99-12.42,213.38c-6.96-4.58-12.41-7.98-17.66-11.66c-26.79-19.04-61.49-12.19-92.41-14.29
		c-84.02,0.89-139.28-53.02-115.46-138.34c27.98-68.4,52.36-112.04,45.4-189.59C2759.77,1383.3,2760.8,1383.89,2761.84,1384.49z"/>
</g>
<g id="calves">
	<path class="st4" d="M658.95,2532.34c-4.26,25.11-10.79,49.5-22.35,72.68c-19.27,34.93-30.8,74.5-52.2,107.83
		c8.68-78.3,1.81-159.83,23.21-235.99c11.89-26.73,21.21-56.38,37.15-80.47C650.39,2442.22,666.81,2486.03,658.95,2532.34z"/>
	<path class="st4" d="M1147.35,2705.36c-60.18-131.39-90.01-160.18-54.71-308.97c15.94,24.08,25.26,53.75,37.14,80.47
		c21.4,76.16,14.54,157.69,23.21,235.99C1149.94,2710.51,1148.56,2707.98,1147.35,2705.36z"/>
	<path class="st4" d="M2337.71,2497.84c11.01-55.54,41.92-107.76,54.39-163.16c4.74-23.72,2.95-48.78,3.69-73.26
		c-2.35-19.65,5.91-14.94,13.41-31.38c-1.8,46.98,35.25,78.88,13.08,126.53c-4.7,16.49-13.65,32.21-15.62,49.39
		c-4.31,57.11-18.23,112.67-26.79,169.09c-3.95,26.01-5.35,52.41-9.15,78.45c-3.89,36.12,3.36,50.51-23.27,72
		C2330.91,2650.23,2326.06,2573.75,2337.71,2497.84z"/>
	<path class="st4" d="M2507.08,2668.59c-16.02,32.16-29.94,67.6-50.8,96.48c-6.94-19.44-38.95-78.34-50.88-104.07
		c-8.89-17.71-5.41-38.9-2.83-57.79c11.09-77.3,21.44-155.75,45.19-230.33c13.01-32.94,31.5-60.64,53.12-89.9
		c13.43,27.99,19.49,59.78,14.39,90.5c-5.25,42.6-6.43,85.24-2.14,127.99C2517.39,2556.96,2532.68,2616.19,2507.08,2668.59z"/>
	<path class="st4" d="M2907.79,2765.07c-20.86-28.89-34.77-64.31-50.8-96.48c-25.59-52.41-10.3-111.63-6.05-167.13
		c4.29-42.76,3.12-85.4-2.13-127.99c-5.1-30.74,0.96-62.49,14.39-90.5c21.61,29.23,40.12,56.97,53.12,89.9
		c23.75,74.59,34.09,153.03,45.19,230.33c2.58,18.9,6.05,40.07-2.83,57.79C2947.02,2686.55,2914.38,2746.07,2907.79,2765.07z"/>
	<path class="st4" d="M2997.11,2409.74c46.19,99.45,42.24,210.41,19.51,315.76c-26.68-21.58-19.35-35.84-23.27-72.01
		c-3.8-26.04-5.2-52.43-9.15-78.45c-8.57-56.41-22.48-111.97-26.79-169.09c-1.97-17.18-10.92-32.9-15.62-49.39
		c-22.18-47.98,14.87-79.32,13.08-126.53c7.48,16.4,15.76,11.78,13.41,31.38c0.74,24.48-1.05,49.53,3.69,73.26
		C2977.1,2360.35,2988.51,2384.76,2997.11,2409.74z"/>
	<path class="st4" d="M487.41,2848.77c-3.21-78.81,19.76-158.54,2.93-237.2c-9.08-54.69-39.86-105.4-36.34-161.92
		c-2.12,2.15-6.46,44.21-4.25,62.47c12.53,111.35,43.23,224.07,15.76,335.64L487.41,2848.77z"/>
	<path class="st4" d="M1271.89,2847.77c-27.47-111.58,3.23-224.29,15.76-335.64c2.21-18.25-2.14-60.32-4.25-62.47
		c3.53,56.52-27.25,107.23-36.34,161.92c-16.82,78.66,6.14,158.37,2.93,237.19L1271.89,2847.77z"/>
</g>
<g id="lats">
	<path class="st4" d="M2628.23,1122.38c-6.37,53.31-14.22,102.36-23.61,156.07c-30.19-25.57-61.61-40.26-81.94-73.93
		c-10.42-18.37-26.03-33.81-36.24-52.26c-15.74-26.08-10.61-57.7-15.64-86.3c-10.24-89.05-56.79-169.78-66.04-258.65
		c49.12,5.83,95.9,5.1,144.74-0.88c18.76,37.03,51.41,69.28,78.76,100.95C2651.73,930.17,2630.29,1082.4,2628.23,1122.38"/>
	<path class="st4" d="M2773.22,1268.86c-4,3.1-8.12,6.28-12.42,9.59c-20.3-116.62-36.86-232.34-33.04-350.65
		c0.31-6.99,4.69-14.82,9.39-20.42c27.33-31.67,60.01-63.94,78.75-100.95c48.84,5.99,95.63,6.71,144.74,0.88
		c-11.92,103.31-69.57,196.63-69.74,302.65c0.19,37.88-29.77,64.5-48.18,94.55C2826.04,1233.57,2798.5,1248.01,2773.22,1268.86"/>
</g>
<g id="hip_adductor">
	<path class="st4" d="M818.11,1773.46c-8.93,33.01-19.16,65.5-31.71,97.33c-0.78-0.07-1.57-0.14-2.35-0.21
		c2.84-52.38-21.73-99.05-30.41-149.05c-3.01-17.33-8.06-34.3-12.1-51.46c-0.52-2.2-1.28-4.72-0.69-6.73
		c5.45-18.57,11.18-37.07,17.18-56.74c16.75,22.22,31.99,43.41,48,65.12C822.74,1701.58,825.67,1740.25,818.11,1773.46z"/>
	<path class="st4" d="M953.35,1870.58c-0.78,0.07-1.57,0.14-2.35,0.21c-12.54-31.84-22.78-64.32-31.7-97.33
		c-7.57-33.2-4.64-71.88,12.07-101.74c16-21.7,31.25-42.89,48-65.12c6,19.68,11.72,38.17,17.18,56.74c0.59,2.01-0.17,4.53-0.69,6.73
		c-4.04,17.16-9.09,34.13-12.1,51.46C975.08,1771.54,950.5,1818.21,953.35,1870.58z"/>
	<path class="st4" d="M2626.99,1934.71c-9,18.43-17.75,36.97-27.55,57.4c-7.31-48.32-12.88-95.49-23.75-142.79
		c-9.45-35.27-18.47-70.97-16-107.81c0.11-2.66,3.14-7.26,5.22-7.49c35.24-3.91,63.84-21.4,88.93-42.9
		C2650.53,1772.8,2667.09,1859.65,2626.99,1934.71z"/>
	<path class="st4" d="M2769.79,1956.29c-1.9,11.5-3.34,23.08-5.16,35.82c-69.35-126.49-52.91-164.53-54.4-300.99
		c25.1,21.5,53.69,38.99,88.93,42.9c2.08,0.23,5.11,4.82,5.22,7.49c2.47,36.84-6.55,72.53-16,107.81
		C2779.81,1884.4,2775.68,1920.57,2769.79,1956.29z"/>
	<path class="st4" d="M760.41,1883.34c-26.95,66.9,5.29,145.56-31.91,209.67c-11.69-146.87-0.75-295.29-35.1-439.63
		c-17.76-77.86-54.11-151.02-66.81-230.16c-0.52-3.85,1.33-8.73,3.72-11.89c0.82-1.09,7.4,0.68,10.08,2.77
		c11.9,9.28,20.73,21.33,24.32,35.93c9.35,38.03,17.45,76.37,26.73,114.42c21.02,76.48,36.92,154.43,56.78,231.11
		C756.84,1824.59,760.86,1853.49,760.41,1883.34z"/>
	<path class="st4" d="M1015.98,1927.8c-2.07,55.57-1.97,109.52-7.08,165.21c-28.61-50.53-16.93-110.86-20.92-166.43
		c-1.25-14.62-6.79-29.38-10.99-43.24c-0.46-29.85,3.56-58.75,12.18-87.77c27.95-115.03,56.51-230.2,83.52-345.52
		c3.62-14.58,18.39-38.99,34.4-38.71c11.89,25.66-18.9,92.24-26.04,121.33C1032.37,1659.02,1017.38,1793.27,1015.98,1927.8z"/>
</g>
<g id="face">
	<path class="st6" d="M916,331.77c-5.67-8.1-17.54-4.18-26.01-5.91l-0.01,0.16c-0.65,0.19-41.97,0.19-42.58,0l-0.01-0.16
		c-7.06,0.56-14.13,0.48-21.17,1.75c-3.32,0.69-4.99,5.09-7.44,7.27c2.43,1.79,4.4,6.05,7.54,6.19c12.84,0.14,27.42,0.21,42.37,0.2
		c14.95,0.01,29.52-0.06,42.37-0.2c3.15-0.14,5.1-4.4,7.54-6.19C917.68,333.91,916.82,332.94,916,331.77z"/>
	<path class="st6" d="M886.83,345.97c-7.93,1.39-16.3,3.04-24.47,1.81c-4.16,0.08-7.89-1.51-11.79-1.81
		c-9.43-0.64-12.17,13.93-3.56,17.03c14.23,4.14,29.16,4.14,43.39,0C898.99,359.91,896.27,345.33,886.83,345.97z"/>
	<path class="st6" d="M958.06,193.92c-7.68-4.73-16.83-3.39-25.65-3.4v-0.2c-5.41,0.36-10.95-0.06-16.21-0.54
		c-12.14-2.93-44.79,28.83-22.93,33.48c3.56,0,5.84-3.22,7.71-6.23c11.2-20.5,31.36-9.06,49.55-14.31c3.88-0.75,6.28-5.71,9.39-8.05
		L958.06,193.92z"/>
	<path class="st6" d="M942.9,210.82c-15.87,0.31-19.3,11.74-25.57,5.44c-6.2-7.34-19.66-2.8-13.37,6.86
		c5.41,4.32,11.26,7.75,16.93,11.53c9.03-3.3,16.96-8.92,23.92-14.71c0.04-0.03,4.04-3.21,2.98-5.13
		C947.09,213.56,944.9,210.82,942.9,210.82z"/>
	<path class="st6" d="M806.2,204.66c12.63-1.41,22.81-0.69,30.22,12.37c5.73,12.89,21.67,2.63,12.28-8.37
		c-13.35-19.93-21.84-19.3-43.71-18.34v0.2c-9.65-0.33-19.1-0.84-27.51,4.14c3.11,2.34,5.51,7.31,9.39,8.05
		C793.44,203.74,799.86,204.66,806.2,204.66z"/>
	<path class="st6" d="M833.95,214.86c-8.1-6.58-11.88,1.89-18.02,3.48c-1.38,0-2.96-0.82-5.29-2.73c-4.16-3.39-10.7-3.83-16.14-4.79
		c-2,0-4.19,2.74-4.88,3.99c-0.41,6.3,20.83,17.62,26.89,19.84C822.38,229.22,838.94,225.27,833.95,214.86z"/>
	<path class="st6" d="M850.63,296.77c-8.13,1.41-3.88-6.8-2.02-13.02c2.06-6.52,5.26-13.02-1.15-14.39
		c-5.36-0.08-17.59,25.65-14.74,34.55c2.53,4.11,8.75,6.35,19.52,7.02c3.66,2.54,9.68,3.78,14.81,3.87
		c5.99,0.17,13.55-0.68,18.11-3.87c7.53-0.52,16.85-3.37,20.02-8.52c2.94-6.67-8.4-31.85-15.22-33.05
		c-6.49,1.46-3.17,7.63-1.09,14.03c2.11,6.12,5.85,14.07-2.15,12.37c-7.38,4.48-8.17,5.75-18.39,5.38
		C858.88,301.52,858.36,300.09,850.63,296.77z"/>
</g>
</svg>
